<?xml version="1.0" encoding="UTF-8"?>
<svg id="Capa_1" xmlns="http://www.w3.org/2000/svg" version="1.1" viewBox="0 0 1080 360">
  <!-- Generator: Adobe Illustrator 29.7.1, SVG Export Plug-In . SVG Version: 2.1.1 Build 8)  -->
  <defs>
    <style>
      .st0 {
        fill: #c7a36e;
      }

      .st1 {
        fill: #59595b;
      }

      .st2 {
        fill: #003764;
      }

      .st3 {
        fill: #003764;
        fill-rule: evenodd;
      }
    </style>
  </defs>
  <path class="st2" d="M369.5,171c0,34.2-7.1,64-21.4,89.3-14.3,25.3-32.6,43.6-54.8,54.8-22.3,11.2-43.9,16.9-65,16.9s-44.7-5.2-66.8-15.5c-19.2-11.2-37.5-26.4-54.8-45.3-17.3-19-26.7-31.5-28.1-37.6,4.7,3.7,15.4,11.3,32,23.2,76.6,54.9,192.7,14.8,192.7-85.5V28l66.3,66.5v76.5Z"/>
  <path class="st0" d="M182.6,254.2c-23.9,0-47.2-6.7-69.9-20-22.7-13.4-34.1-33.2-34.1-59.4V40.2l65.1,55.2v97.8c0,31.9,10.4,50,38.9,61.1Z"/>
  <path class="st3" d="M214.8,139.6c28.1,0,50.9,23.4,50.9,52.3s-22.8,52.3-50.9,52.3-50.9-23.4-50.9-52.3,22.8-52.3,50.9-52.3Z"/>
  <g>
    <path class="st1" d="M405.2,178.8h11.6v23.3h23.2v-23.3h11.6v57.7h-11.6v-25.3h-23.2v25.3h-11.6v-57.7Z"/>
    <path class="st1" d="M490.4,177.8c8.9,0,15.8,2.7,20.8,8.2,5,5.4,7.5,12.6,7.5,21.6s-2.5,16.3-7.4,21.8c-4.9,5.5-11.9,8.3-20.9,8.3s-16-2.7-20.9-8.2c-4.9-5.5-7.4-12.8-7.4-21.9s2.5-16.4,7.4-21.7c4.9-5.4,11.9-8,20.9-8ZM490.4,228.5c5.5,0,9.5-2,12.2-6.1,2.7-4.1,4-9,4-14.8s-1.3-10.6-4-14.6c-2.7-4-6.7-6-12.2-6s-9.4,2-12.1,6.1c-2.7,4-4.1,8.9-4.1,14.6s1.3,10.9,4,14.9c2.6,4,6.7,6.1,12.2,6.1Z"/>
    <path class="st1" d="M560.3,189.4c-3.8-1.7-7.7-2.5-11.7-2.5s-4.6.6-6.4,1.9c-1.8,1.2-2.7,3.3-2.7,6.2s2.8,5.1,8.4,7.5c5.6,2.4,9.8,4.5,12.7,6.5,2.8,2,4.2,5.7,4.2,11.2s-2,10.4-6,13.2c-4,2.8-9.2,4.3-15.6,4.3s-5.9-.2-7.7-.6c-1.8-.4-4.2-.9-7.1-1.7l1.1-10.5c2,1.1,4.2,2,6.5,2.7,2.3.6,4.5,1,6.6,1s5-.6,7.1-1.9c2.1-1.3,3.2-3.1,3.2-5.6s-3-5.7-8.9-8.3c-5.9-2.6-10.1-4.8-12.7-6.5-2.5-1.7-3.8-5.3-3.8-10.7s1.9-10.5,5.8-13.3c3.9-2.9,8.7-4.3,14.4-4.3s9.7.7,13.8,2.1l-1.1,9.5Z"/>
    <path class="st1" d="M574.3,178.8h14.6c7.2,0,13,1.3,17.5,3.9,4.4,2.6,6.6,7.1,6.6,13.5s-2,11-6.1,13.9c-4.1,3-9.4,4.4-16.2,4.4h-4.9v21.9h-11.6v-57.7ZM585.9,205.5h4.1c3.4,0,6-.6,8-1.9,2-1.3,3-3.5,3-6.7s-1-5.4-3-6.9c-2-1.4-4.7-2.2-8-2.2h-4.1v17.6Z"/>
    <path class="st1" d="M620.3,178.8h11.6v57.7h-11.6v-57.7Z"/>
    <path class="st1" d="M654.8,187.9h-16.5v-9.1h44.7v9.1h-16.5v48.6h-11.6v-48.6Z"/>
    <path class="st1" d="M706.8,178.8h13.1l22.7,57.7h-12.8l-5-13.2h-23.4l-5,13.2h-12l22.5-57.7ZM713.2,190.4l-8.5,23.8h16.9l-8.4-23.8Z"/>
    <path class="st1" d="M750,178.8h11.6v48.6h22.4v9.1h-34v-57.7Z"/>
  </g>
  <g>
    <path class="st1" d="M404.8,265.5h11.6v33.4c0,5.2.9,9.3,2.8,12.1,1.9,2.8,4.9,4.2,9.2,4.2s7.2-1.4,9.1-4.3c1.9-2.9,2.9-6.9,2.9-12v-33.4h11.6v37c0,7.5-2,13-6,16.6-4,3.5-9.9,5.3-17.5,5.3s-13.6-1.7-17.6-5.2c-4-3.5-6-9-6-16.7v-37Z"/>
    <path class="st1" d="M464.4,265.5h14.2s22,43.2,22,43.2l.2-43.2h11.1v57.7h-14.2l-22.1-43.2-.2,43.2h-11.1v-57.7Z"/>
    <path class="st1" d="M523.7,265.5h11.6v57.7h-11.6v-57.7Z"/>
    <path class="st1" d="M541.8,265.5h12.4l14.8,45.3,14.8-45.3h11.6l-19.4,57.7h-14.2l-19.9-57.7Z"/>
    <path class="st1" d="M602.9,265.5h34.1v9.1h-22.5v14.2h20.6v9.1h-20.6v16.2h22.7v9.1h-34.3v-57.7Z"/>
    <path class="st1" d="M647.9,265.5h12.5c6.3,0,11.1.2,14.4.7,3.3.4,6.3,1.8,8.9,4.1,2.6,2.3,3.9,5.9,3.9,10.9s-1.1,6.5-3.2,8.9c-2.2,2.5-5,4-8.7,4.5,1.4,0,2.6.6,3.5,1.8,1,1.1,1.8,2.6,2.6,4.3l9.3,22.6h-12.9l-6.9-18c-.9-2.3-1.8-3.8-2.9-4.7-1-.9-2.8-1.3-5.1-1.3h-3.7v24h-11.6v-57.7ZM659.4,290.2h3.8c4.8,0,8-.7,9.7-2.1,1.7-1.4,2.5-3.4,2.5-6s-1.1-5.1-3.3-6.1c-2.2-1-5.2-1.4-9-1.4h-3.8v15.6Z"/>
    <path class="st1" d="M730.4,276.1c-3.8-1.7-7.7-2.5-11.7-2.5s-4.5.6-6.4,1.9c-1.8,1.2-2.7,3.3-2.7,6.2s2.8,5.1,8.4,7.5c5.6,2.4,9.8,4.5,12.7,6.5,2.8,2,4.2,5.7,4.2,11.2s-2,10.4-6,13.2c-4,2.8-9.2,4.3-15.6,4.3s-5.9-.2-7.7-.6c-1.8-.4-4.2-.9-7.1-1.7l1.1-10.5c2,1.1,4.2,2,6.5,2.7,2.3.6,4.5,1,6.6,1s5-.6,7.1-1.9c2.1-1.3,3.2-3.1,3.2-5.6s-3-5.7-8.9-8.3c-5.9-2.6-10.1-4.8-12.7-6.5-2.5-1.7-3.8-5.3-3.8-10.7s1.9-10.5,5.8-13.3c3.9-2.9,8.7-4.3,14.4-4.3s9.7.7,13.8,2.1l-1.1,9.5Z"/>
    <path class="st1" d="M744.4,265.5h11.6v57.7h-11.6v-57.7Z"/>
    <path class="st1" d="M778.9,274.6h-16.5v-9.1h44.7v9.1h-16.5v48.6h-11.6v-48.6Z"/>
    <path class="st1" d="M830.9,265.5h13.1l22.7,57.7h-12.8l-5-13.2h-23.4l-5,13.2h-12l22.5-57.7ZM837.3,277.1l-8.5,23.8h16.9l-8.4-23.8Z"/>
    <path class="st1" d="M873.1,265.5h12.5c6.3,0,11.1.2,14.4.7,3.3.4,6.3,1.8,8.9,4.1,2.6,2.3,3.9,5.9,3.9,10.9s-1.1,6.5-3.2,8.9c-2.2,2.5-5,4-8.7,4.5,1.4,0,2.6.6,3.5,1.8,1,1.1,1.8,2.6,2.6,4.3l9.3,22.6h-12.9l-6.9-18c-.9-2.3-1.8-3.8-2.9-4.7-1-.9-2.8-1.3-5.1-1.3h-3.7v24h-11.6v-57.7ZM884.7,290.2h3.8c4.8,0,8-.7,9.7-2.1,1.7-1.4,2.5-3.4,2.5-6s-1.1-5.1-3.3-6.1c-2.2-1-5.2-1.4-9-1.4h-3.8v15.6Z"/>
    <path class="st1" d="M923.7,265.5h11.6v57.7h-11.6v-57.7Z"/>
    <path class="st1" d="M973.2,264.5c8.9,0,15.8,2.7,20.8,8.2,5,5.4,7.5,12.6,7.5,21.6s-2.5,16.3-7.4,21.8c-4.9,5.5-11.9,8.3-20.9,8.3s-16-2.7-20.9-8.2c-4.9-5.5-7.4-12.8-7.4-21.9s2.5-16.4,7.4-21.7c4.9-5.4,11.9-8,20.9-8ZM973.2,315.2c5.5,0,9.5-2,12.2-6.1,2.7-4.1,4-9,4-14.8s-1.3-10.6-4-14.6c-2.7-4-6.7-6-12.2-6s-9.4,2-12.1,6.1c-2.7,4-4.1,8.9-4.1,14.6s1.3,10.9,4,14.9c2.6,4,6.7,6.1,12.2,6.1Z"/>
  </g>
</svg>