<?xml version="1.0" encoding="UTF-8"?>
<svg id="Capa_1" xmlns="http://www.w3.org/2000/svg" version="1.1" viewBox="0 0 1080 360">
  <!-- Generator: Adobe Illustrator 29.7.1, SVG Export Plug-In . SVG Version: 2.1.1 Build 8)  -->
  <defs>
    <style>
      .st0 {
        fill: #c7a36e;
      }

      .st1 {
        fill: #59595b;
      }

      .st2 {
        fill-rule: evenodd;
      }

      .st2, .st3 {
        fill: #003764;
      }
    </style>
  </defs>
  <path class="st3" d="M295.7,171.2c0,33.4-7,62.6-20.9,87.3-14,24.8-31.9,42.6-53.6,53.6-21.8,11-43,16.5-63.6,16.5s-43.7-5.1-65.3-15.2c-18.8-11-36.7-25.8-53.7-44.3-17-18.6-26.1-30.8-27.5-36.8,4.6,3.7,15.1,11.1,31.3,22.7,74.9,53.7,188.5,14.5,188.5-83.6V31.3l64.9,65.1v74.8Z"/>
  <path class="st0" d="M112.8,252.6c-23.4,0-46.2-6.5-68.4-19.6-22.2-13-33.4-32.4-33.4-58.1V43.2l63.7,54v95.6c0,31.2,10.2,48.8,38.1,59.8"/>
  <path class="st2" d="M144.4,140.5c27.4,0,49.8,22.9,49.8,51.1s-22.3,51.2-49.8,51.2-49.8-22.9-49.8-51.2,22.3-51.1,49.8-51.1"/>
  <polygon class="st1" points="414.5 164.1 400.3 164.1 400.3 132.7 371 132.7 371 164.1 356.9 164.1 356.9 94.3 371 94.3 371 123.4 400.3 123.4 400.3 94.3 414.5 94.3 414.5 164.1"/>
  <path class="st1" d="M425.5,129.1c0-25,14.2-36.2,34-36.2s34,11.2,34,36.3-14.2,36.3-34,36.3-34-11.3-34-36.3h0ZM459.4,102.3c-9.9,0-19.5,7-19.5,27s9.6,26.9,19.6,26.9,19.5-7.1,19.5-26.9-9.5-27-19.5-27h-.1Z"/>
  <path class="st1" d="M534.3,109.5c-1.1-3.4-3.4-7.1-8.8-7.1s-5.1,1-6.7,2.5c-1.4,1.2-2,3.1-2,5.1,0,3.1,1.5,5.8,4.4,7.8,2.7,1.9,5.1,3.3,10.8,6.1,5.6,3.1,9.2,5.1,12,7.7,3,3.1,5.7,7.4,5.7,13.4s-1.8,9.9-5.8,13.7c-3.8,3.5-9.7,7-18.9,7-15.3,0-22.3-7.2-23.9-16.8l13.9-.7c1.3,4.3,4.2,8.1,10,8.1s6.4-1.7,8-3.3c1.5-1.6,2.2-3.9,2.2-6.1,0-3.4-1.3-5.6-3.6-7.5-2.1-1.6-4.7-3.1-10.4-6.2-6-3.2-9.8-5.7-12.7-8.4-3-2.9-5.8-7.2-5.8-13.6s1.7-9.3,5.6-12.4c3.9-3.4,9.6-5.6,17.7-5.6,13.3,0,20.3,7,21.9,16.1l-13.5.5Z"/>
  <path class="st1" d="M557.8,164.2v-69.8h21.7c18.2,0,25.5,7.9,25.5,21.5s-9.7,22.4-26,22.4h-7.1v26h-14.1ZM578.5,128.6c8.1,0,12-3.2,12-12.7s-4-12.1-11.4-12.1h-7.2v24.8h6.6Z"/>
  <rect class="st1" x="614" y="94.3" width="14.1" height="69.9"/>
  <polygon class="st1" points="687.6 103.7 669.2 103.7 669.2 164.2 655.1 164.2 655.1 103.7 636.8 103.7 636.8 94.3 687.6 94.3 687.6 103.7"/>
  <path class="st1" d="M712,145.4l-5.6,18.8h-15.4l24.4-69.8h19.1l24.5,69.8h-15.4l-5.6-18.8h-26.1ZM730.2,119.2c-1.6-5.4-3.2-10.6-4.8-16.9h-.8c-1.4,6.2-3.1,11.7-4.6,16.9l-5,16.9h20.1l-5-16.9Z"/>
  <polygon class="st1" points="807.9 164.1 766.8 164.1 766.8 94.3 780.9 94.3 780.9 154.7 807.9 154.7 807.9 164.1"/>
  <path class="st1" d="M414.4,238.8c0,20.2-8.5,27.7-28.8,27.7s-28.6-7.1-28.6-27.7v-43.5h13.9v44.1c0,11.6,3,17.8,14.7,17.8s14.9-6,14.9-17.8v-44.1h13.9v43.5Z"/>
  <path class="st1" d="M473.1,250.6c-.5-9.6-.7-28.2-.7-55.3h13v69.8h-19.5c-12.9-27.4-21.3-45.9-25-55.3h-.4c.4,9.5.6,28,.6,55.3h-13v-69.8h19.6c12.9,27.1,21.2,45.8,24.9,55.3h.4Z"/>
  <rect class="st1" x="499" y="195.3" width="14.1" height="69.8"/>
  <path class="st1" d="M553,255.8c2.2-9.1,4.3-16.5,6.5-24.2l9.5-36.4h14.9l-22.4,69.8h-17.8l-22.4-69.8h15l9.5,36.5c2.1,7.5,4.3,15,6.5,24.1h.6Z"/>
  <polygon class="st1" points="627.7 224.4 627.7 233.8 606.2 233.8 606.2 255.7 635.7 255.7 635.7 265.1 592 265.1 592 195.3 634.9 195.3 634.9 204.7 606.2 204.7 606.2 224.4 627.7 224.4"/>
  <path class="st1" d="M700,265.1h-17.3l-15.7-27.1h-6.7v27.1h-14.1v-69.9h22.1c13.3,0,27.7,3.9,27.7,21.2s-7.2,17.9-15.8,19.6l19.9,29ZM669.2,228.7c7.9,0,12.3-3.9,12.3-11.9s-3.6-12.1-13.3-12.1h-7.9v24h8.9Z"/>
  <path class="st1" d="M736.8,210.4c-1.1-3.4-3.4-7.1-8.8-7.1s-5.2,1-6.7,2.5c-1.3,1.3-2,3.1-2,5.1,0,3.1,1.5,5.7,4.4,7.7,2.7,2,5.1,3.4,10.8,6.2,5.6,3.1,9.2,5.1,11.9,7.7,3.1,3.1,5.7,7.4,5.7,13.4s-1.8,9.9-5.8,13.7c-3.8,3.5-9.7,6.9-18.9,6.9-15.3,0-22.3-7.2-24-16.8l13.9-.7c1.3,4.3,4.2,8.1,10.1,8.1s6.4-1.7,8-3.3c1.5-1.6,2.2-3.9,2.2-6.1,0-3.4-1.4-5.7-3.5-7.5-2.2-1.6-4.8-3.1-10.4-6.3-6-3.1-9.9-5.6-12.7-8.4-3-2.9-5.8-7.2-5.8-13.6s1.7-9.3,5.6-12.4c3.9-3.4,9.6-5.6,17.7-5.6,13.3,0,20.3,7,21.9,16.1l-13.5.5Z"/>
  <rect class="st1" x="761.8" y="195.3" width="14.1" height="69.8"/>
  <polygon class="st1" points="835.3 204.7 817 204.7 817 265.1 802.9 265.1 802.9 204.7 784.6 204.7 784.6 195.3 835.3 195.3 835.3 204.7"/>
  <path class="st1" d="M859.8,246.3l-5.5,18.8h-15.3l24.4-69.8h19.1l24.4,69.8h-15.4l-5.6-18.8h-26.2ZM877.9,220.2c-1.6-5.4-3.2-10.6-4.8-16.9h-.7c-1.5,6.3-3.2,11.7-4.7,16.9l-5,16.9h20l-4.9-16.9Z"/>
  <path class="st1" d="M968.3,265.1h-17.4l-15.7-27.1h-6.7v27.1h-14.1v-69.9h22.1c13.3,0,27.7,3.9,27.7,21.2s-7.2,17.9-15.8,19.6l19.9,29ZM937.4,228.7c7.9,0,12.3-3.9,12.3-11.9s-3.7-12.1-13.3-12.1h-7.9v24h9Z"/>
  <rect class="st1" x="975.2" y="195.3" width="14.1" height="69.8"/>
  <path class="st1" d="M1000.3,230.1c0-25,14.2-36.2,34-36.2s34.1,11.2,34.1,36.3-14.2,36.3-34.1,36.3-34-11.3-34-36.3h0ZM1034.2,203.2c-9.9,0-19.5,7.1-19.5,27.1s9.6,26.9,19.6,26.9,19.6-7.1,19.6-26.9-9.5-27.1-19.6-27.1h0Z"/>
  <path class="st1" d="M358.8,297.2h8.1c5.2,0,9.3,1.1,12.4,3.3,3.1,2.2,4.6,6,4.6,11.4s-1.6,9.2-4.7,11.4c-3.1,2.2-7.2,3.3-12.4,3.3h-8.1v-29.5ZM364.8,322.1h3.3c2.6,0,4.9-.9,6.8-2.7,1.9-1.8,2.9-4.3,2.9-7.4s-1-5.5-2.9-7.3c-1.9-1.8-4.2-2.8-6.8-2.8h-3.3v20.2Z"/>
  <path class="st1" d="M389.7,305h5v4.9c.2-1.2.9-2.4,2-3.6,1.1-1.2,2.5-1.8,4-1.8s.6,0,.8,0c.3,0,.6,0,.9.1v5.7c-.2-.1-.6-.3-1-.3-.5,0-1-.1-1.5-.1-1.6,0-2.7.7-3.5,2-.8,1.3-1.1,3.6-1.1,6.9v8h-5.7v-21.8Z"/>
  <path class="st1" d="M407.7,306.1c2.4-1.1,4.9-1.6,7.6-1.6s5.7.7,7.2,2.2c1.5,1.4,2.2,3.8,2.2,7v8.2l.3,4.9h-5c-.1-.6-.2-1.1-.2-1.7,0-.6,0-1.1,0-1.6-.7,1.2-1.6,2.1-2.9,2.8s-2.6,1-3.9,1c-2.1,0-3.8-.6-5.3-1.7-1.5-1.2-2.3-2.7-2.3-4.7s.3-2.8,1-3.9c.7-1,1.5-1.8,2.6-2.3,1.1-.5,2.2-.9,3.5-1.1,1.3-.2,2.6-.3,3.9-.3h3.1c0-1.7-.4-2.9-1.2-3.6-.8-.7-2-1.1-3.7-1.1s-2.3.2-3.5.6c-1.1.4-2.2,1-3.2,1.7l-.2-4.9ZM414.4,323.1c.8,0,1.6-.2,2.3-.5.7-.3,1.2-.8,1.7-1.4.4-.6.8-1.3.9-2,.2-.8.3-1.6.3-2.5h-2.4c-1.8,0-3.3.3-4.5.8-1.2.5-1.8,1.5-1.8,3s.3,1.6,1,2c.6.4,1.5.7,2.6.7Z"/>
  <path class="st1" d="M431,320.8h5.9v5.9h-5.9v-5.9Z"/>
  <path class="st1" d="M456.5,297.2h9.5l7,22.3,7.1-22.3h9.5v29.5h-5.7v-24.3l-8,24.3h-5.7l-7.9-24.3h0v24.3h-5.7v-29.5Z"/>
  <path class="st1" d="M497.6,306.1c2.4-1.1,4.9-1.6,7.6-1.6s5.7.7,7.2,2.2c1.5,1.4,2.2,3.8,2.2,7v8.2l.3,4.9h-5c-.1-.6-.2-1.1-.2-1.7,0-.6,0-1.1,0-1.6-.7,1.2-1.6,2.1-2.9,2.8-1.3.7-2.6,1-3.9,1-2.1,0-3.8-.6-5.3-1.7-1.5-1.2-2.3-2.7-2.3-4.7s.3-2.8,1-3.9c.7-1,1.5-1.8,2.6-2.3,1.1-.5,2.2-.9,3.5-1.1,1.3-.2,2.6-.3,3.9-.3h3.1c0-1.7-.4-2.9-1.2-3.6-.8-.7-2-1.1-3.7-1.1s-2.3.2-3.5.6c-1.1.4-2.2,1-3.2,1.7l-.2-4.9ZM504.2,323.1c.8,0,1.6-.2,2.3-.5.7-.3,1.2-.8,1.7-1.4.4-.6.8-1.3.9-2,.2-.8.3-1.6.3-2.5h-2.4c-1.8,0-3.3.3-4.5.8-1.2.5-1.8,1.5-1.8,3s.3,1.6,1,2c.6.4,1.5.7,2.6.7Z"/>
  <path class="st1" d="M521,305h5v4.9c.2-1.2.9-2.4,2-3.6,1.1-1.2,2.5-1.8,4-1.8s.6,0,.8,0c.3,0,.6,0,.9.1v5.7c-.2-.1-.6-.3-1-.3-.5,0-1-.1-1.5-.1-1.6,0-2.7.7-3.5,2-.8,1.3-1.1,3.6-1.1,6.9v8h-5.7v-21.8Z"/>
  <path class="st1" d="M541.4,295.8h5.8l-5.8,6.2h-3.5l3.5-6.2ZM538.2,326.7v-21.8h5.7v21.8h-5.7Z"/>
  <path class="st1" d="M551.5,306.1c2.4-1.1,4.9-1.6,7.6-1.6s5.7.7,7.2,2.2c1.5,1.4,2.2,3.8,2.2,7v8.2l.3,4.9h-5c-.1-.6-.2-1.1-.2-1.7,0-.6,0-1.1,0-1.6-.7,1.2-1.6,2.1-2.9,2.8-1.3.7-2.6,1-3.9,1-2.1,0-3.8-.6-5.3-1.7-1.5-1.2-2.3-2.7-2.3-4.7s.3-2.8,1-3.9c.7-1,1.5-1.8,2.6-2.3,1.1-.5,2.2-.9,3.5-1.1,1.3-.2,2.6-.3,3.9-.3h3.1c0-1.7-.4-2.9-1.2-3.6-.8-.7-2-1.1-3.7-1.1s-2.3.2-3.5.6c-1.1.4-2.2,1-3.2,1.7l-.2-4.9ZM558.2,323.1c.8,0,1.6-.2,2.3-.5.7-.3,1.2-.8,1.7-1.4.4-.6.8-1.3.9-2,.2-.8.3-1.6.3-2.5h-2.4c-1.8,0-3.3.3-4.5.8-1.2.5-1.8,1.5-1.8,3s.3,1.6,1,2c.6.4,1.5.7,2.6.7Z"/>
  <path class="st1" d="M584.8,297.2h6.3l7.5,23.1,7.5-23.1h5.9l-9.9,29.5h-7.3l-10.1-29.5Z"/>
  <path class="st1" d="M616.4,295.6h5.7v5.4h-5.7v-5.4ZM616.4,305h5.7v21.8h-5.7v-21.8Z"/>
  <path class="st1" d="M642.8,309.6c-.6-.3-1.2-.5-1.7-.6-.5-.1-1.3-.2-2.1-.2-1.7,0-3.1.6-4.2,1.9-1,1.3-1.6,2.9-1.6,5s.5,3.8,1.5,5.1c1,1.3,2.5,2,4.4,2s1.5-.1,2.2-.3c.7-.2,1.5-.5,2.1-.8l.3,4.7c-.8.3-1.6.4-2.5.5-.9.1-1.9.2-3.1.2-3.4,0-6.1-1.1-7.9-3.2-1.9-2.1-2.8-4.9-2.8-8.3s.9-6,2.8-8.1c1.9-2.1,4.4-3.2,7.7-3.2s3.9.2,5.5.7l-.5,4.5Z"/>
  <path class="st1" d="M650.1,309.1h-4.2v-4.1h4.2v-4.4l5.7-1.8v6.2h5v4.1h-5v10.2c0,1.1.2,2,.6,2.6.4.6,1.1,1,2.1,1s2-.2,2.6-.6l.2,4.5c-1.2.3-2.6.5-4.2.5s-3.9-.6-5.1-1.9c-1.2-1.3-1.8-3-1.8-5.2v-11.1Z"/>
  <path class="st1" d="M675.4,304.5c3.3,0,6.1,1,8.2,3.1,2.1,2.1,3.2,4.9,3.2,8.4s-1,5.9-3.1,8c-2.1,2.1-4.8,3.2-8.3,3.2s-6.3-1.1-8.3-3.2c-2-2.1-3.1-4.8-3.1-8.1s1.1-6.3,3.2-8.4c2.1-2.1,4.9-3.1,8.1-3.1ZM675.4,322.9c2,0,3.4-.7,4.2-2.2.8-1.4,1.3-3.2,1.3-5.4s-.5-3.3-1.4-4.6c-.9-1.3-2.3-1.9-4.1-1.9s-3.1.6-4,1.9c-.9,1.3-1.4,2.8-1.4,4.6s.4,3.9,1.2,5.4c.8,1.4,2.2,2.2,4.2,2.2Z"/>
  <path class="st1" d="M692.1,305h5v4.9c.2-1.2.9-2.4,2-3.6,1.1-1.2,2.5-1.8,4-1.8s.6,0,.8,0c.3,0,.6,0,.9.1v5.7c-.2-.1-.6-.3-1-.3-.5,0-1-.1-1.5-.1-1.6,0-2.7.7-3.5,2-.8,1.3-1.1,3.6-1.1,6.9v8h-5.7v-21.8Z"/>
  <path class="st1" d="M709.3,295.6h5.7v5.4h-5.7v-5.4ZM709.3,305h5.7v21.8h-5.7v-21.8Z"/>
  <path class="st1" d="M722.7,306.1c2.4-1.1,4.9-1.6,7.6-1.6s5.7.7,7.2,2.2c1.5,1.4,2.2,3.8,2.2,7v8.2l.3,4.9h-5c-.1-.6-.2-1.1-.2-1.7,0-.6,0-1.1,0-1.6-.7,1.2-1.6,2.1-2.9,2.8-1.3.7-2.6,1-3.9,1-2.1,0-3.8-.6-5.3-1.7-1.5-1.2-2.3-2.7-2.3-4.7s.3-2.8,1-3.9c.7-1,1.5-1.8,2.6-2.3,1.1-.5,2.2-.9,3.5-1.1,1.3-.2,2.6-.3,3.9-.3h3.1c0-1.7-.4-2.9-1.2-3.6-.8-.7-2-1.1-3.7-1.1s-2.3.2-3.5.6c-1.1.4-2.2,1-3.2,1.7l-.2-4.9ZM729.3,323.1c.8,0,1.6-.2,2.3-.5.7-.3,1.2-.8,1.7-1.4.4-.6.8-1.3.9-2,.2-.8.3-1.6.3-2.5h-2.4c-1.8,0-3.3.3-4.5.8-1.2.5-1.8,1.5-1.8,3s.3,1.6,1,2c.6.4,1.5.7,2.6.7Z"/>
  <path class="st1" d="M782,302.9c-1.1-.5-2.3-.9-3.7-1.2-1.3-.3-2.7-.4-3.9-.4-3.3,0-6,1-7.9,3-1.9,2-2.8,4.6-2.8,7.7s.9,5.6,2.7,7.6c1.8,2,4.2,2.9,7.3,2.9s2.8-.1,3.9-.4v-7.7h-6.2v-4.6h11.9v15.9c-1.6.4-3.3.8-4.9,1.1-1.7.3-3.2.4-4.6.4-4.9,0-8.9-1.2-11.8-3.7-2.9-2.5-4.4-6.2-4.4-11s1.4-8.9,4.3-11.7c2.9-2.7,6.8-4.1,11.9-4.1s3.3,0,4.6.3c1.3.2,2.6.5,4.1,1l-.4,5Z"/>
  <path class="st1" d="M799.6,304.5c3.3,0,6.1,1,8.2,3.1,2.1,2.1,3.2,4.9,3.2,8.4s-1,5.9-3.1,8c-2.1,2.1-4.8,3.2-8.3,3.2s-6.3-1.1-8.3-3.2c-2-2.1-3.1-4.8-3.1-8.1s1.1-6.3,3.2-8.4c2.1-2.1,4.9-3.1,8.1-3.1ZM799.6,322.9c2,0,3.4-.7,4.2-2.2.8-1.4,1.3-3.2,1.3-5.4s-.5-3.3-1.4-4.6c-.9-1.3-2.3-1.9-4.1-1.9s-3.1.6-4,1.9c-.9,1.3-1.4,2.8-1.4,4.6s.4,3.9,1.2,5.4c.8,1.4,2.2,2.2,4.2,2.2ZM800.1,295.8h5.8l-5.8,6.2h-3.5l3.5-6.2Z"/>
  <path class="st1" d="M816.2,305h5.3v3c.8-1.2,1.9-2.1,3-2.7,1.2-.6,2.4-.9,3.5-.9s2.8.3,3.9.9c1.1.6,1.9,1.6,2.5,2.9.6-1.3,1.6-2.2,2.8-2.9,1.2-.6,2.6-1,4-1,2.5,0,4.3.8,5.3,2.3,1,1.5,1.6,3.6,1.6,6.3v13.7h-5.7v-13c0-1.5-.2-2.7-.5-3.6-.4-.9-1.3-1.3-2.7-1.3s-2.3.6-3.1,1.7c-.8,1.1-1.2,3-1.2,5.6v10.6h-5.7v-13c0-1.5-.2-2.7-.5-3.6-.4-.9-1.3-1.3-2.7-1.3s-2.3.6-3.1,1.7c-.8,1.1-1.2,3-1.2,5.6v10.6h-5.7v-21.8Z"/>
  <path class="st1" d="M872,325.5c-2.1,1.2-4.6,1.8-7.5,1.8s-6.4-1-8.4-3c-2-2-3-4.8-3-8.3s.9-6.1,2.6-8.3c1.7-2.2,4.2-3.3,7.5-3.3s6.4,1.1,8,3.4c1.6,2.3,2.3,5.5,2.3,9.7h-15c0,1.7.6,3.1,1.7,4.1,1.2,1,2.6,1.5,4.5,1.5s2.5-.2,3.6-.6c1.1-.4,2.3-.9,3.6-1.7v4.6ZM868.2,313.7c0-1.5-.4-2.7-1.2-3.7-.8-1-1.9-1.4-3.4-1.4s-2.7.5-3.5,1.4-1.3,2.2-1.5,3.7h9.6Z"/>
  <path class="st1" d="M877.9,305h17.2v4.6l-10.8,12.7h11.2v4.4h-18.1v-4.6l11-12.8h-10.6v-4.4Z"/>
  <path class="st1" d="M927.7,324.3c-.9,1.1-1.9,1.8-3,2.3-1.1.5-2.4.7-3.8.7-3.1,0-5.4-1.1-6.9-3.3-1.5-2.2-2.2-4.9-2.2-8.2s.7-6.1,2.2-8.2,3.8-3.2,6.9-3.2,4.8,1,6.5,3v-12.4h5.7v31.7h-5.5v-2.4ZM922.5,322.8c1.7,0,3-.7,3.8-2.2.8-1.4,1.2-3.1,1.2-4.9s-.4-3.4-1.3-4.8c-.8-1.4-2.1-2.1-3.8-2.1s-2.9.7-3.6,2.1c-.7,1.4-1.1,3-1.1,4.8s.4,3.5,1.1,4.9c.7,1.4,2,2.1,3.7,2.1Z"/>
  <path class="st1" d="M957.2,325.5c-2.1,1.2-4.6,1.8-7.5,1.8s-6.4-1-8.4-3c-2-2-3-4.8-3-8.3s.9-6.1,2.6-8.3c1.7-2.2,4.2-3.3,7.5-3.3s6.4,1.1,8,3.4c1.6,2.3,2.3,5.5,2.3,9.7h-15c0,1.7.6,3.1,1.7,4.1,1.2,1,2.6,1.5,4.5,1.5s2.5-.2,3.6-.6,2.3-.9,3.6-1.7v4.6ZM953.4,313.7c0-1.5-.4-2.7-1.2-3.7-.8-1-1.9-1.4-3.4-1.4s-2.7.5-3.5,1.4c-.8.9-1.3,2.2-1.5,3.7h9.6Z"/>
  <path class="st1" d="M977,297.2h17.4v4.6h-11.5v7.3h10.5v4.6h-10.5v8.3h11.6v4.6h-17.5v-29.5Z"/>
  <path class="st1" d="M1000.8,305h5v4.9c.2-1.2.9-2.4,2-3.6,1.1-1.2,2.5-1.8,4-1.8s.6,0,.8,0c.3,0,.6,0,.9.1v5.7c-.2-.1-.6-.3-1-.3-.5,0-1-.1-1.5-.1-1.6,0-2.7.7-3.5,2-.8,1.3-1.1,3.6-1.1,6.9v8h-5.7v-21.8Z"/>
  <path class="st1" d="M1018,295.6h5.7v5.4h-5.7v-5.4ZM1018,305h5.7v21.8h-5.7v-21.8Z"/>
  <path class="st1" d="M1044.5,309.6c-.6-.3-1.2-.5-1.7-.6-.5-.1-1.3-.2-2.1-.2-1.7,0-3.1.6-4.2,1.9-1,1.3-1.6,2.9-1.6,5s.5,3.8,1.5,5.1c1,1.3,2.5,2,4.4,2s1.5-.1,2.2-.3c.7-.2,1.5-.5,2.1-.8l.3,4.7c-.8.3-1.6.4-2.5.5-.9.1-1.9.2-3.1.2-3.4,0-6.1-1.1-7.9-3.2-1.9-2.1-2.8-4.9-2.8-8.3s.9-6,2.8-8.1c1.9-2.1,4.4-3.2,7.7-3.2s3.9.2,5.5.7l-.5,4.5Z"/>
  <path class="st1" d="M1067.4,325.5c-2.1,1.2-4.6,1.8-7.5,1.8s-6.4-1-8.4-3c-2-2-3-4.8-3-8.3s.9-6.1,2.6-8.3c1.7-2.2,4.2-3.3,7.5-3.3s6.4,1.1,8,3.4c1.6,2.3,2.3,5.5,2.3,9.7h-15c0,1.7.6,3.1,1.7,4.1,1.2,1,2.6,1.5,4.5,1.5s2.5-.2,3.6-.6,2.3-.9,3.6-1.7v4.6ZM1063.6,313.7c0-1.5-.4-2.7-1.2-3.7-.8-1-1.9-1.4-3.4-1.4s-2.7.5-3.5,1.4c-.8.9-1.3,2.2-1.5,3.7h9.6Z"/>
</svg>